<svg width="40" height="40" viewBox="0 0 40 40" fill="none" xmlns="http://www.w3.org/2000/svg">
<path d="M35.873 0H4.12698C1.84127 0 0 1.84127 0 4.12698V7.30159V8.57143C0 9.11111 0.412698 9.52381 0.952381 9.52381H39.0476C39.5873 9.52381 40 9.11111 40 8.57143V4.12698C40 1.84127 38.1587 0 35.873 0ZM6.66667 5.71429H5.39683C4.85714 5.71429 4.44444 5.30159 4.44444 4.7619C4.44444 4.22222 4.85714 3.80952 5.39683 3.80952H6.66667C7.20635 3.80952 7.61905 4.22222 7.61905 4.7619C7.61905 5.30159 7.20635 5.71429 6.66667 5.71429ZM11.746 5.71429H10.4762C9.93651 5.71429 9.52381 5.30159 9.52381 4.7619C9.52381 4.22222 9.93651 3.80952 10.4762 3.80952H11.746C12.2857 3.80952 12.6984 4.22222 12.6984 4.7619C12.6984 5.30159 12.2857 5.71429 11.746 5.71429ZM34.6032 5.71429H23.8095C23.2698 5.71429 22.8571 5.30159 22.8571 4.7619C22.8571 4.22222 23.2698 3.80952 23.8095 3.80952H34.6032C35.1429 3.80952 35.5556 4.22222 35.5556 4.7619C35.5556 5.30159 35.1429 5.71429 34.6032 5.71429Z" fill="#FB8500"/>
<path d="M39.0476 11.4285H0.952381C0.412698 11.4285 0 11.8412 0 12.3808V35.8729C0 38.1586 1.84127 39.9999 4.12698 39.9999H35.873C38.1587 39.9999 40 38.1586 40 35.8729V12.3808C40 11.8412 39.5873 11.4285 39.0476 11.4285ZM32.6984 26.6666H14.6032V33.9681C14.6032 34.5078 14.1905 34.9205 13.6508 34.9205C13.1111 34.9205 12.6984 34.5078 12.6984 33.9681V17.4602C12.6984 16.9205 13.1111 16.5078 13.6508 16.5078C14.1905 16.5078 14.6032 16.9205 14.6032 17.4602V24.7618H32.6984C33.2381 24.7618 33.6508 25.1745 33.6508 25.7142C33.6508 26.2539 33.2381 26.6666 32.6984 26.6666Z" fill="#FB8500"/>
</svg>
