<svg width="40" height="40" viewBox="0 0 40 40" fill="none" xmlns="http://www.w3.org/2000/svg">
<path d="M20 0C8.952 0 0 8.952 0 20C0 31.048 8.952 40 20 40C31.048 40 40 31.048 40 20C40 8.952 31.048 0 20 0ZM29.224 25.056C29.224 27.096 27.568 28.752 25.528 28.752H11.696C9.656 28.752 8 27.096 8 25.056V14.944C8 12.904 9.656 11.248 11.696 11.248H24.184C24.392 11.248 24.568 11.424 24.568 11.632C24.568 11.84 24.4 12.016 24.184 12.016H11.696C10.088 12.016 8.776 13.328 8.776 14.936V25.048C8.776 26.656 10.088 27.968 11.696 27.968H25.528C27.136 27.968 28.448 26.656 28.448 25.048V19.992C28.448 19.784 28.616 19.608 28.832 19.608C29.048 19.608 29.224 19.776 29.224 19.992V25.056ZM31.848 12.872L18.16 23.136L14.632 16.064C14.536 15.872 14.616 15.64 14.808 15.544C15 15.448 15.232 15.528 15.328 15.72L18.44 21.96L31.384 12.248C31.552 12.12 31.8 12.152 31.928 12.328C32.056 12.504 32.024 12.744 31.848 12.872Z" fill="#FB8500"/>
</svg>
